<svg width="1176" height="676" viewBox="0 0 1176 676" fill="none" xmlns="http://www.w3.org/2000/svg">
<g clip-path="url(#clip0)">
<rect width="1176" height="676" fill="#E7F4FA"/>
<path d="M1065.68 27C1048.47 27 1042.05 43.6667 1041 52H1091C1090.37 50.6842 1087.2 27 1065.68 27Z" fill="#F7A91A"/>
<path d="M1214 457H-38V402.5L73 380L561 327H810H1214V457Z" fill="url(#paint0_linear)"/>
<path d="M1142 431H439V400.396L501.327 387.762L775.339 358H915.153H1142V431Z" fill="url(#paint1_linear)"/>
<path d="M838.5 447.5L833 362.5C833 362.5 629.5 357.5 432 387C234.5 416.5 -11 424.5 -11 424.5V447.5H305.5H838.5Z" fill="url(#paint2_linear)"/>
<path d="M500 429.321L505.5 344.32C505.5 344.32 709 339.321 906.5 368.821C1104 398.32 1349.5 406.321 1349.5 406.321V429.321H1033H500Z" fill="url(#paint3_linear)"/>
<rect y="476" width="1182" height="200" fill="#31438C"/>
<ellipse cx="686" cy="531.5" rx="88" ry="19.5" fill="#252C5E"/>
<ellipse cx="817" cy="546.5" rx="88" ry="19.5" fill="#252C5E"/>
<ellipse cx="964.382" cy="552.221" rx="88" ry="19.5" transform="rotate(-5.08417 964.382 552.221)" fill="#252C5E"/>
<path d="M1097 155.418V315H1192V91L1097 155.418Z" fill="#D2EBF5"/>
<path d="M71 224V318H371V224H71Z" fill="#D2EBF5"/>
<path d="M216 187V304H370V187H216Z" fill="#B9E1F2"/>
<path d="M269 151V305H371V151H269Z" fill="#B9E1F2"/>
<rect x="989" y="254" width="89" height="49" fill="#D2EBF5"/>
<path d="M980.636 65L967 305H1042L1014.73 65H980.636Z" fill="#D2EBF5"/>
<rect x="783" y="190" width="77" height="117" fill="#D8EEF7"/>
<path d="M955.877 153.81V303.602H859.232V121.423H873.817V52.5992H885.97V28.3086H914.329V52.5992H928.913V153.81H955.877Z" fill="#B9E1F2"/>
<rect x="898.125" y="-16.2256" width="4.86145" height="45.3425" fill="#B9E1F2"/>
<path d="M324 126.128V321H460V126.128H445.576V81H337.394V126.128H324Z" fill="#D8EEF7"/>
<path d="M689 -42V318H773V77.4393H758.72V16.8785H722.6V-27.7009L689 -42Z" fill="#D2EBF5"/>
<rect x="652" y="103" width="43" height="218" fill="#D2EBF5"/>
<rect x="446" y="211" width="156" height="107" fill="#D8EEF7"/>
<rect width="56" height="152" transform="matrix(-1 0 0 1 658 166)" fill="#D8EEF7"/>
<path d="M743.035 335.391C662.664 334.04 209.338 383.234 -7.27803 408L-29 283.044C-9.08819 267.847 329.413 261.092 493.232 283.044C657.052 304.996 973.831 294.864 1039.9 298.242C1092.76 300.943 1156.66 289.236 1182 283.044V335.391C1069.17 335.953 823.406 336.741 743.035 335.391Z" fill="url(#paint4_linear)"/>
<rect width="1182" height="31" transform="matrix(1 0 0 -1 0 676)" fill="#B7D179"/>
<rect y="437" width="1182" height="39" fill="url(#paint5_linear)"/>
<path d="M483 464H801.5V500.5H441L483 464Z" fill="#252C5E" fill-opacity="0.8"/>
<path d="M1092 467H1041V457.976H1044.19L1048.65 357.427H1044.19V347.114H1050.56V331H1082.44V347.114H1088.17V357.427H1084.35L1088.17 457.976H1092V467Z" fill="#4079B5"/>
<path d="M1054.45 85.25V78.7917C1044.72 77.7583 1041.43 67.1667 1041 62H1090.98C1091.49 69.2333 1083.93 76.8542 1079.44 78.7917V85.25H1076.24V93H1057.66V85.25H1054.45Z" fill="#4079B5"/>
<rect x="1035" y="51" width="62" height="12" fill="#4079B5"/>
<path d="M1160.54 261C1166.08 261 1160.54 315 1160.54 315H1155C1155 315 1155 261 1160.54 261Z" fill="#30408A"/>
<path d="M1092.54 260C1098.08 260 1092.54 314 1092.54 314H1087C1087 314 1087 260 1092.54 260Z" fill="#30408A"/>
<path d="M1128.54 232C1134.08 232 1128.54 305 1128.54 305H1123C1123 305 1123 232 1128.54 232Z" fill="#30408A"/>
<path d="M1142.51 174.886C1147.02 179.034 1144.39 185.257 1142.51 187.85C1142.51 187.85 1165.51 236 1142.51 246C1119.5 256 1094.76 234 1094.76 234C1091.34 230.889 1083.47 223.629 1079.36 219.481C1074.23 214.295 1084.5 194.072 1094.76 191.998C1105.03 189.924 1103.49 170.738 1115.3 170.219C1127.1 169.701 1136.86 169.701 1142.51 174.886Z" fill="url(#paint6_linear)"/>
<path d="M1072.33 223.405C1075.05 217.563 1091.56 211.382 1100.05 219.275C1111.37 226.419 1126.27 244.568 1114.47 267.75C1099.73 296.728 1069.06 277.626 1070.84 270.22C1072.61 262.814 1069.3 258.354 1065.83 251.27C1062.35 244.185 1068.93 230.708 1072.33 223.405Z" fill="url(#paint7_linear)"/>
<path d="M1193.66 205.45C1201.15 243.078 1175.34 265.495 1161.5 272C1150.98 272 1138.11 249.483 1138.11 230.969C1138.11 212.456 1139.87 194.442 1138.11 177.93C1136.36 161.417 1155.66 137.9 1161.5 122.388C1167.35 106.877 1186.06 128.393 1184.31 142.403C1182.56 156.414 1184.31 158.415 1193.66 205.45Z" fill="url(#paint8_linear)"/>
<path d="M1071.75 93L1077 331H1056L1061.25 93H1071.75Z" fill="#4079B5"/>
<path d="M-59.906 550.089C-80.0632 564.98 -179.258 574.781 -212.411 576.11L-288 685.704H367.107L648.246 699C666.812 684.375 706.065 624.545 661.508 613.908C605.81 600.613 551.439 590.735 487.785 600.042C436.861 607.488 407.775 625.178 396.282 613.908C394.514 608.147 382.109 598.136 371.5 587.5C358.239 574.204 324.671 576.11 268.974 576.11C213.276 576.11 207.972 553.508 161.557 536.224C115.143 518.939 -34.7096 531.475 -59.906 550.089Z" fill="url(#paint9_linear)"/>
<path d="M1196 570.779C1276.73 585.629 1406.72 663.152 1396.54 696.742L981.543 688.242C956.043 648.242 913.36 621.16 1054.54 553.742C1129.93 517.742 1095.09 552.216 1196 570.779Z" fill="url(#paint10_linear)"/>
<path d="M1260 531.5H1242.5L1038 468L1041.5 466.5H1091.5L1117.5 468L1256.5 511L1260 531.5Z" fill="#252C5E" fill-opacity="0.8"/>
<path d="M488 417V341H497V417H488Z" fill="#31438C"/>
<path d="M488 417V473H497V417H488Z" fill="#31438C"/>
<path d="M461 437V493H470V437H461Z" fill="#31438C"/>
<path d="M850.84 446H447C447 420.976 465.245 412.907 474.368 412H822.137C847.769 417.984 851.953 437.16 850.84 446Z" fill="#4079B5"/>
<path d="M476 347L466 398H822L812.667 347H476Z" fill="#4079B5"/>
<path d="M911.208 70.0199L907.956 72.906L908.769 78.2659H910.395L914.265 71.9075C914.265 71.9075 919.077 66.4164 920.881 64.281C922.686 62.1455 919.678 63.0607 916.671 64.2809C913.663 65.5012 911.208 70.0199 911.208 70.0199Z" fill="#D79C6E"/>
<path d="M799.708 83.6062L803.503 85.5943L803.946 90.8768L802.379 91.2541L797.193 86.1096C797.193 86.1096 791.298 82.008 789.07 80.3974C786.842 78.7868 789.951 78.9585 793.129 79.4201C796.307 79.8818 799.708 83.6062 799.708 83.6062Z" fill="#D79C6E"/>
<path d="M841.504 106.405C842.806 105.859 844.706 103.539 845.018 101.901C845.331 100.263 851.786 100.673 855.17 101.082C854.799 103.514 854.917 107.512 856.597 107.95L859.464 106.405C858.207 107.724 857.275 108.126 856.597 107.95L845.018 114.186L841.504 106.405Z" fill="#D79C6E"/>
<path d="M803.427 85.1771C816.468 92.0406 835.31 101.592 842.117 106.94L833.251 139.586C824.278 126.133 814.32 108.322 799.799 90.4165L803.427 85.1771Z" fill="#181E49"/>
<path d="M863.783 75.8318C872.424 81.868 871.019 89.3837 867.447 95.0174C864.004 98.9838 859.195 102.008 857.914 102.553C844.168 105.818 835.292 96.0563 838.933 85.6814C842.574 75.3065 852.982 68.2865 863.783 75.8318Z" fill="#D79C6E"/>
<path d="M859.909 84.1055C858.047 82.2917 848.155 78.0897 846.233 75.2869C845.86 72.0833 862.266 68.9954 869.18 81.0303C875.402 91.8592 861.835 101.383 857.288 102.8C856.009 103.199 853.726 103.856 855.95 101.849C862.254 96.1589 862.237 86.3727 859.909 84.1055Z" fill="#252C5E"/>
<path d="M1043.38 523.014L1038.5 513.979L1026.63 515.734L1039.63 532.807L1043.38 523.014Z" fill="#754E2D"/>
<path d="M1050.18 528.94L1044.25 522.524C1041.35 525.438 1034.57 532.502 1030.7 537.444C1026.84 542.386 1028.74 548.392 1029.84 550.42C1030.5 550.773 1033.41 548.219 1036.96 544.937C1041.16 541.059 1050.18 528.94 1050.18 528.94Z" fill="#28357F"/>
<path d="M941.88 552.37L943.909 540.891L932.848 532.381L932.155 557.236L941.88 552.37Z" fill="#A06D46"/>
<path d="M912.57 301.787C919.155 284.805 923.334 263.586 924.094 253.375L931.114 240.613L944.517 250.269C942.934 260.813 939.242 279.151 928.845 294.513C923.401 304.176 909.025 319.034 909.079 324.284C909.132 329.533 915.355 339.987 909.078 343.624C907.845 344.374 905.944 345.942 906.633 347.124C908.031 351.486 902.649 350.483 900.32 347.261C897.118 342.83 900.822 332.874 901.87 325.012C902.708 318.722 910.09 305.582 912.57 301.787Z" fill="#A06D46"/>
<path d="M1018.72 270.917C1017.61 264.187 1014.21 245.343 1010.04 241.54L1023.29 222.533C1033.47 241.54 1034.27 260.057 1033.83 270.917C1033.26 285.068 1026.18 311.972 1022.87 318.025C1019.55 324.077 1023.68 328.034 1021.35 336.197C1019.03 344.361 1005.27 337.464 1010.04 332.199C1013.56 328.304 1012.12 321.745 1016.53 315.882C1020.93 310.019 1020.1 279.33 1018.72 270.917Z" fill="#A06D46"/>
<path d="M960.535 201.102V191.578L978.492 180.862L981.365 192.768L964.485 205.865L960.535 201.102Z" fill="#A06D46"/>
<path d="M973.309 375.619C989.551 340.366 1006.39 307.897 1006.24 290.945C1006.17 272.049 999.537 289.73 969.711 283.826C958.253 299.897 950.806 283.018 940.274 310.101C922.757 376.63 911.418 401.992 922.851 422.046C934.284 442.101 996.283 496.893 1030.74 525.274L1039.56 515.727C1020.42 478.765 989.866 438.265 977.743 418.436C972.582 405.472 963.853 396.144 973.309 375.619Z" fill="#252C5E"/>
<path d="M964.673 413.91C989.867 379.982 1003.46 362.199 1009.23 349.998C1015.74 336.446 1026.02 325.315 1007.04 292.413C1000.87 286.961 986.707 282.256 957.562 339.541C946.133 362.007 923.605 411.775 924.924 431.121C926.244 450.467 930.108 509.273 931.875 536.258L944.352 542.76C954.194 516.224 956.526 458.769 954.629 439.283C955.389 427.75 958.4 418.656 964.673 413.91Z" fill="url(#paint11_linear)"/>
<path d="M945.795 560.158L944.748 550.079C940.356 550.526 929.94 551.805 923.416 553.348C916.892 554.89 914.702 561.635 914.365 564.254C914.709 565.051 918.874 564.927 924.066 564.632C930.201 564.283 945.795 560.158 945.795 560.158Z" fill="#28357F"/>
<path d="M985.07 190.037C978.605 193.539 963.24 205.537 961.965 199.515C951.53 205.235 947.199 205.718 940.341 213.993C936.543 218.345 928.982 231.069 923.179 254.282C928.469 256.344 940.339 254.282 942.213 261.426L946.52 245.948C944.365 276.11 943.728 303.201 940.339 309.179C954.244 302.896 994.938 295.93 1018 320.558C1018 297.54 1001.46 283.53 1004.81 271.147C1007.48 265.046 1008.64 256.425 1008.22 246.856L1008.3 247.536C1010.62 240.161 1024.26 235.662 1031.42 232.549C1022.46 219.543 1007.03 178.142 985.07 190.037Z" fill="url(#paint12_linear)"/>
<path d="M945.685 159.76C949.901 150.132 954.565 147.571 958.189 146.732C964.788 145.044 973.586 137.841 985.911 148.941C1012.69 173.057 1003.38 188.157 1001.47 190.387C994.533 190.387 982.08 213.009 981.003 210.231C979.926 207.452 977.971 192.372 977.971 182.847C977.971 173.322 973.661 166.179 969.351 165.782C965.904 165.464 960.474 163.533 958.189 162.607C956.365 165.453 952.831 166.575 952.472 171.735C952.113 176.894 966.119 196.963 961.809 199.912C958.362 202.271 955.522 215.976 954.533 222.533C951.608 210.469 953.314 200.46 954.533 196.963C940.461 184.743 940.415 171.796 945.685 159.76Z" fill="#28357F"/>
<path d="M959.64 155.03C970.493 150.546 975.802 163.938 977.099 171.194C979.34 168.717 982.054 168.587 982.879 173.149C983.54 176.799 980.166 181.101 978.397 182.796C973.206 197.656 964.359 198.569 956.809 188.922C949.26 179.276 946.075 160.635 959.64 155.03Z" fill="#A06D46"/>
<path d="M828.009 166.719C832.449 162.232 829.354 178.842 872.119 160.585C872.027 159.051 871.659 148.868 873.357 133.461C875.055 118.053 893.983 99.1191 911.036 78.091L907.812 71.6426C892.497 79.7031 865.646 99.0838 857.652 105.366C847.659 113.218 843.95 107.911 840.506 105.328C838.894 104.119 835.267 100.895 834.461 103.313C833.119 107.339 831.642 123.854 830.834 127.898C828.662 138.766 825.711 157.399 828.009 166.719Z" fill="#252C5E"/>
<path d="M872.348 154.596C869.811 156.323 842.092 156.611 829.145 156.323L827.559 161.937C844.621 164.025 864.817 163.024 872.348 160.433C872.348 158.705 872.744 155.028 872.348 154.596Z" fill="#59A2D6"/>
<path d="M810.319 226.435C799.096 209.822 776.861 182.927 776.195 166.719C776.713 155.84 779.822 113.552 777.69 109.999C777.69 87.6123 785.224 79.6003 789.665 78.715C789.664 77.1723 799.909 79.3596 794.675 85.4653C787.215 94.1687 785.794 102.117 786.016 105.004C787.829 115.087 793.706 130.35 796.4 159.535C814.878 179.291 821.041 184.38 822.892 189.169L813.153 198.108L810.319 226.435Z" fill="#F8CB89"/>
<path d="M802.237 164.923C802.237 169.233 788.169 181.386 782.032 186.475C786.971 196.353 792.509 205.033 796.849 210.721L812.564 177.495L802.237 164.923Z" fill="url(#paint13_linear)"/>
<path d="M810.461 501.104V534.117H796.22L787.805 506.93L810.461 501.104Z" fill="#754E2D"/>
<path d="M859.653 508.872L860.949 534.764L846.061 534.764L839.588 515.992L859.653 508.872Z" fill="#754E2D"/>
<path d="M814.937 175.857C817.516 185.446 818.408 188.032 814.688 194.446L814.784 202.75L825.465 203.987L835.724 193.488L839.358 173.401C834.495 168.876 833.069 161.876 832.963 158.942L836.53 145.443L829.349 137.293C826.757 131.882 819.368 122.274 810.547 127.129C804.815 130.284 801.806 134.635 800.614 141.06C800.393 141.555 798.692 144.533 797.45 146.037C796.207 147.54 798.435 148.78 799.549 148.088C799.145 152.955 800.289 155.683 801.965 158.942C806.213 167.197 811.81 164.227 814.937 175.857Z" fill="#F8CB89"/>
<path d="M819.231 132.294C814.504 130.325 805.26 133.438 802.616 134.809C801.871 128.565 812.329 121.507 826.543 122.978C840.757 124.449 841.573 139.128 838.626 145.813C836.269 151.16 834.91 161.736 834.525 166.356C828.492 162.853 828.174 152.337 830.445 147.844C832.717 143.351 827.447 138.978 825.583 146.313C824.741 148.511 823.058 153.34 823.058 155.07C818.686 145.482 823.046 141.395 824.07 134.004C823.718 134.008 822.472 133.644 819.231 132.294Z" fill="#303539"/>
<path d="M903.939 318.809C904.306 314.323 906.266 277.588 900.296 256.518C892.663 229.579 887.724 213.415 875.152 203.088L857.685 215.45C863.074 216.791 852.053 224.406 856.743 225.538C863.165 228.166 881.925 260.649 883.19 263.665C883.876 265.303 893.034 301.793 894.079 316.44C891.839 328.019 900.286 336.892 906.091 345.099C911.895 353.306 915.529 346.463 909.806 337.039C905.228 329.5 903.987 321.745 903.939 318.809Z" fill="#F8CB89"/>
<path d="M776.8 377.467C777.533 365.629 793.28 285.082 804.635 269.366L828.587 284.254C825.361 291.466 825.525 375.965 818.801 389.766C812.076 403.567 811.757 501.751 811.757 530.233L792.983 530.233C776.067 476.629 773.173 436.126 776.8 377.467Z" fill="#4079B5"/>
<path d="M861.597 393.003C866.126 358.695 868.177 332.156 868.177 297.66L833.391 284.162L812.105 271.068C810.367 279.391 811.463 349.642 812.105 387.177C812.105 413.717 814.888 481.037 842.179 528.938L861.597 528.938C861.597 462.265 857.923 420.837 861.597 393.003Z" fill="#59A2D6"/>
<path d="M812.473 546.17L811.747 533.717C805.778 533.341 790.716 532.911 781.722 533.436C772.729 533.96 768.81 541.811 767.977 544.968C768.324 546.023 773.94 546.749 780.962 547.481C789.259 548.345 812.473 546.17 812.473 546.17Z" fill="#4079B5"/>
<path d="M862.975 546.093L862.197 533.644C856.226 533.293 841.162 532.925 832.171 533.487C823.18 534.049 819.294 541.916 818.474 545.077C818.825 546.131 824.445 546.833 831.469 547.535C839.77 548.366 862.975 546.093 862.975 546.093Z" fill="#4079B5"/>
<path d="M821.823 198.444C817.435 200.385 815.239 196.588 814.689 194.446C812.177 195.955 813.191 209.816 804.2 209.816C798.645 209.816 794.604 214.762 786.972 321.175C795.876 315.25 830.913 314.385 870.04 325.216C870.04 303.664 869.495 264.988 870.04 257.593C870.322 253.759 868.868 245.931 867.09 237.648L893.316 232.47C877.132 180.685 842.146 169.647 839.637 172.682C834.977 178.319 827.307 196.019 821.823 198.444Z" fill="url(#paint14_linear)"/>
<path d="M868.895 189.169C873.565 180.189 874.1 165.821 872.155 160.433C868.895 162.229 863.479 162.229 860.336 164.474C855.253 164.903 850.009 164.474 845.968 163.232C839.549 164.848 834.299 167.27 832.078 170.76C827.049 178.662 827.559 218.353 825.314 240.013C832.857 236.062 841.772 238.367 847.909 240.013C850.603 220.706 857.068 182.451 861.379 183.888C865.689 185.325 866.65 186.924 868.895 189.169Z" fill="#252C5E"/>
<path d="M806.266 228.556L802.912 235.206L783.792 233.249L792.784 223.869L806.266 228.556Z" fill="#CA8D5E"/>
<path d="M805.49 239.771L807.362 230.452C803.035 229.021 794.507 226.58 787.777 225.228C781.047 223.876 776.64 228.904 775.416 231.071C775.468 231.915 780.104 233.123 785.301 234.509C794.424 236.943 805.49 239.771 805.49 239.771Z" fill="#4079B5"/>
<path d="M848.539 247.589L848.727 237.109C843.75 236.412 834.015 235.451 826.447 235.315C818.879 235.18 815.093 241.506 814.193 244.099C814.416 245.005 819.684 245.398 825.596 245.874C835.975 246.71 848.539 247.589 848.539 247.589Z" fill="#4079B5"/>
<path d="M806.932 233.17C809.481 214.87 810.935 193.195 815.014 194.557C816.062 192.611 817.977 187.911 817.259 184.679C816.361 180.638 814.564 170.684 811.87 168.926C808.446 170.304 805.774 172.059 804.374 174.262C799.616 181.753 792.844 206.267 789.87 225.986C798.646 228.231 803.34 228.68 806.932 233.17Z" fill="#252C5E"/>
<path d="M1083.88 447.305C1080.64 457.281 1088.86 464.61 1093.38 467.027C1098.56 468.364 1111.3 471.008 1120.83 470.887C1130.36 470.766 1134.85 459.992 1135.9 454.62L1122.57 458.483C1128.35 447.925 1124.12 440.227 1121.28 437.698L1114.21 451.57C1118 438.438 1114.55 430.102 1112.35 427.576C1107.35 431.879 1105.41 444.508 1105.06 450.284L1101.35 434.896C1092.95 442.269 1094.62 452.466 1096.5 456.643L1083.88 447.305Z" fill="url(#paint15_linear)"/>
<path d="M1057.48 444.082C1060.17 448.994 1055.28 463.137 1051.25 465.684C1049.37 467.875 1049.41 467.534 1044.19 468.684C1041.69 469.237 1034.24 467.149 1030.71 465.684C1022.39 461.163 1022.71 452.619 1023.91 448.912L1034.09 457.447C1034.09 452.51 1038.22 444.27 1041.72 444.082L1044.17 457.213L1057.48 444.082Z" fill="url(#paint16_linear)"/>
<path d="M600.135 193.676L602.596 186.451C592.858 179.381 571.731 165.182 572.119 168.198C572.603 171.967 582.627 174.098 583.619 180.392C584.625 186.776 590.069 192.544 600.135 193.676Z" fill="#A06D46"/>
<path d="M622.515 206.137C632.332 214.595 697.381 253.295 702.581 245.54C700.043 238.223 699.023 230.477 693.325 226.819C686.202 222.245 656.176 211.752 641.722 204.858C626.085 197.4 613.602 191.393 601.791 186.102C601.791 186.102 601.079 189.157 599.271 190.357L598 192.5C598 192.5 612.921 200.401 622.515 206.137Z" fill="#A06D46"/>
<path d="M683.237 420.014C683.594 406.114 686.95 382.442 688.583 372.344L711.304 369.226C710.265 381.997 708.186 409.411 708.186 416.895C708.186 426.251 698.384 486.395 698.384 497.978C698.384 509.561 706.404 526.936 698.384 526.936C690.365 526.936 667.644 530.5 668.535 526.936C669.426 523.372 685.91 516.689 688.583 510.898C691.256 505.106 682.792 437.389 683.237 420.014Z" fill="#845935"/>
<path d="M705.422 419.02C705.792 403.358 709.278 376.685 710.975 365.306L734.577 361.792C733.497 376.183 731.338 407.073 731.338 415.506C731.338 426.048 721.156 493.819 721.156 506.871C721.156 519.923 729.486 539.501 721.156 539.501C712.826 539.501 689.224 543.517 690.15 539.501C691.075 535.485 708.198 527.955 710.975 521.429C713.752 514.903 704.959 438.598 705.422 419.02Z" fill="#A06D46"/>
<path d="M684.365 515.428C690.392 516.863 698.688 517.275 703.587 516.14C704.766 515.866 706.075 516.456 706.436 517.611L709.282 526.718C709.637 527.855 708.926 529.048 707.757 529.277L691.227 532.511C690.847 532.585 690.461 532.623 690.075 532.623H663.816C660.041 527.171 677.32 513.751 684.365 515.428Z" fill="#28357F"/>
<path d="M716.124 414.634C715.788 410.608 715.425 393.665 715.285 385.696L707.737 383.6L705.22 410.859C708.994 413.795 716.459 418.66 716.124 414.634Z" fill="#E4B48F"/>
<path d="M683.413 250.657C680.897 263.658 687.703 280.992 688.446 283.368C684.239 316.669 680.29 409.662 679.639 423.021C683.168 419.491 697.662 421.718 713.953 423.021C734.318 424.65 731.642 423.021 744.642 428.893L736.899 270.352C737.772 270.411 738.596 270.481 739.354 270.56C739.8 256.601 738.576 230.946 727.448 226.753C726.111 222.297 701.04 218.881 691.685 224.227C683.064 229.153 690.33 227.145 685.054 245.5C684.604 247.065 684.063 248.779 683.413 250.657Z" fill="url(#paint17_linear)"/>
<path d="M678.5 229C677.7 231.8 674.167 235.5 672.5 237L679.5 242.5L684.5 247C687.5 241 690.333 226.667 690.5 221.5L679 219.5C679.167 221.5 679.3 226.2 678.5 229Z" fill="#252C5E"/>
<path d="M719.743 341.159C725.494 329.492 744.416 256.186 733.932 252.831C726.771 257.032 718.579 259.83 716.625 266.313C714.181 274.417 713.597 306.552 711.278 322.447C708.77 339.643 708.093 359.27 705.415 374.032C702.068 392.484 699.124 410.098 707.931 411.356C716.738 412.614 713.383 403.388 713.383 387.452C713.383 374.703 716.922 351.977 719.743 341.159Z" fill="#A06D46"/>
<path d="M739.491 270.365C739.936 256.406 734.196 237.157 729.974 237.157C724.136 235.591 712.786 240.26 714.09 271.464C718.867 269.872 729.698 269.655 737.035 270.156C737.909 270.216 738.732 270.286 739.491 270.365Z" fill="#252C5E"/>
<path d="M708.156 524.091C714.183 525.526 722.479 525.938 727.378 524.803C728.557 524.529 729.866 525.119 730.227 526.274L733.073 535.381C733.428 536.518 732.717 537.711 731.548 537.94L715.018 541.174C714.638 541.248 714.252 541.286 713.866 541.286H687.607C683.832 535.834 701.111 522.414 708.156 524.091Z" fill="#436EAD"/>
<path d="M696.392 169.373C679.79 183.032 676.933 204.637 683.971 213.533C691.01 222.429 698.156 185.499 696.392 169.373Z" fill="#A06D46"/>
<path d="M683.072 228.509C687.655 217.843 687.662 196.87 687.905 187.944C687.905 187.944 688.068 166.032 705.367 167.66C722.665 169.287 725.826 180.34 728.92 189.565C732.33 199.73 728.837 190.453 737.145 216.293C743.725 237.676 732.477 242.456 726.03 242.174C725.379 233.879 714.494 227.765 709.402 223.372C710.315 227.933 708.598 233.88 702.498 234.022C700.23 232.764 678.488 239.176 683.072 228.509Z" fill="url(#paint18_linear)"/>
</g>
<defs>
<linearGradient id="paint0_linear" x1="1033" y1="359.5" x2="873.593" y2="969.913" gradientUnits="userSpaceOnUse">
<stop stop-color="#58A2D6"/>
<stop offset="1" stop-color="#2B3481"/>
</linearGradient>
<linearGradient id="paint1_linear" x1="1040.37" y1="376.25" x2="950.85" y2="719.018" gradientUnits="userSpaceOnUse">
<stop stop-color="#58A2D6"/>
<stop offset="1" stop-color="#2B3481"/>
</linearGradient>
<linearGradient id="paint2_linear" x1="-83" y1="421" x2="89.8937" y2="1243.02" gradientUnits="userSpaceOnUse">
<stop stop-color="#58A2D6"/>
<stop offset="1" stop-color="#2B3481"/>
</linearGradient>
<linearGradient id="paint3_linear" x1="1421.5" y1="402.821" x2="1248.61" y2="1224.84" gradientUnits="userSpaceOnUse">
<stop stop-color="#58A2D6"/>
<stop offset="1" stop-color="#2B3481"/>
</linearGradient>
<linearGradient id="paint4_linear" x1="1173.03" y1="298.382" x2="1164.3" y2="432.405" gradientUnits="userSpaceOnUse">
<stop stop-color="#B7D179"/>
<stop offset="1" stop-color="#6FB656"/>
</linearGradient>
<linearGradient id="paint5_linear" x1="1173.24" y1="445.244" x2="1172.54" y2="482.994" gradientUnits="userSpaceOnUse">
<stop stop-color="#B7D179"/>
<stop offset="1" stop-color="#6FB656"/>
</linearGradient>
<linearGradient id="paint6_linear" x1="1106.57" y1="165.552" x2="1111.81" y2="215.84" gradientUnits="userSpaceOnUse">
<stop stop-color="#58A2D6"/>
<stop offset="1" stop-color="#2B3481"/>
</linearGradient>
<linearGradient id="paint7_linear" x1="1079.1" y1="217.036" x2="1105" y2="283.126" gradientUnits="userSpaceOnUse">
<stop stop-color="#58A2D6"/>
<stop offset="1" stop-color="#2B3481"/>
</linearGradient>
<linearGradient id="paint8_linear" x1="1195" y1="149.524" x2="1159.92" y2="279.265" gradientUnits="userSpaceOnUse">
<stop stop-color="#58A2D6"/>
<stop offset="1" stop-color="#2B3481"/>
</linearGradient>
<linearGradient id="paint9_linear" x1="381.227" y1="543.066" x2="374.171" y2="608.55" gradientUnits="userSpaceOnUse">
<stop stop-color="#B7D179"/>
<stop offset="1" stop-color="#6FB656"/>
</linearGradient>
<linearGradient id="paint10_linear" x1="1059.54" y1="561.242" x2="1136.77" y2="739.145" gradientUnits="userSpaceOnUse">
<stop offset="0.00635164" stop-color="#B7D179"/>
<stop offset="1" stop-color="#6FB656"/>
</linearGradient>
<linearGradient id="paint11_linear" x1="985.938" y1="273.559" x2="1007.57" y2="412.654" gradientUnits="userSpaceOnUse">
<stop stop-color="#58A2D6"/>
<stop offset="1" stop-color="#2B3481"/>
</linearGradient>
<linearGradient id="paint12_linear" x1="916.275" y1="281.194" x2="1017.16" y2="305.454" gradientUnits="userSpaceOnUse">
<stop stop-color="#B7D179"/>
<stop offset="1" stop-color="#6FB656"/>
</linearGradient>
<linearGradient id="paint13_linear" x1="793.934" y1="158.699" x2="819.187" y2="169.471" gradientUnits="userSpaceOnUse">
<stop stop-color="#F9B21B"/>
<stop offset="1" stop-color="#F49517"/>
</linearGradient>
<linearGradient id="paint14_linear" x1="775.377" y1="178.437" x2="893.844" y2="193.193" gradientUnits="userSpaceOnUse">
<stop stop-color="#F9B21B"/>
<stop offset="1" stop-color="#F49517"/>
</linearGradient>
<linearGradient id="paint15_linear" x1="1086.08" y1="429.936" x2="1083.31" y2="467.968" gradientUnits="userSpaceOnUse">
<stop stop-color="#B7D179"/>
<stop offset="1" stop-color="#6FB656"/>
</linearGradient>
<linearGradient id="paint16_linear" x1="1080" y1="390" x2="1076.83" y2="468.921" gradientUnits="userSpaceOnUse">
<stop stop-color="#B7D179"/>
<stop offset="1" stop-color="#6FB656"/>
</linearGradient>
<linearGradient id="paint17_linear" x1="672.082" y1="379.649" x2="720.516" y2="371.861" gradientUnits="userSpaceOnUse">
<stop stop-color="#58A2D6"/>
<stop offset="1" stop-color="#2B3481"/>
</linearGradient>
<linearGradient id="paint18_linear" x1="700.505" y1="200.316" x2="730.018" y2="279.495" gradientUnits="userSpaceOnUse">
<stop stop-color="#B5CADA"/>
<stop offset="1" stop-color="#73789E"/>
</linearGradient>
<clipPath id="clip0">
<rect width="1176" height="676" fill="white"/>
</clipPath>
</defs>
</svg>
